<?xml version="1.0" encoding="utf-8"?>
<!-- Generator: Adobe Illustrator 19.0.0, SVG Export Plug-In . SVG Version: 6.00 Build 0)  -->
<svg version="1.1" id="Capa_1" xmlns="http://www.w3.org/2000/svg" xmlns:xlink="http://www.w3.org/1999/xlink" x="0px" y="0px"
	 viewBox="-268 390.8 58.5 60.1" enable-background="new -268 390.8 58.5 60.1" xml:space="preserve">
<g id="XMLID_185_">
	<linearGradient id="XMLID_2_" gradientUnits="userSpaceOnUse" x1="-265.9187" y1="420.84" x2="-211.5813" y2="420.84">
		<stop  offset="0" style="stop-color:#CC2128"/>
		<stop  offset="0.4909" style="stop-color:#A31A1F"/>
		<stop  offset="1" style="stop-color:#841014"/>
	</linearGradient>
	<circle id="XMLID_188_" fill="url(#XMLID_2_)" cx="-238.8" cy="420.8" r="27.2"/>
	<path id="XMLID_187_" fill="#FFFFFF" d="M-222.6,417.2c0.1,0.4-0.2,0.5-0.3,0.7c-0.1,0.3,0.3,0.1,0.3,0.4c-0.3,0-0.6,0-0.7-0.1
		c-0.1-0.4,0.2-0.4,0.1-0.7c-0.3-0.1-0.3,0.2-0.5,0.4c0.1,1.3-0.3,3.4-0.8,4.4c-0.1,0.3-0.4,0.4-0.4,0.7c-0.1,0.9,1.1,1.2,1.3,1.9
		c0.1,0.7-0.9,2.6-0.1,3.4c-0.1,0.1-0.2,0.2-0.1,0.4c-0.2,0.2-0.2,0.1-0.5,0.1c0,0.3,0.1,0.6-0.1,0.8c-0.5,0.1-1,0.2-1.7,0.2
		c-0.1-0.8,0.6-1.3,0.7-2c0.3-1.4-0.7-2.6-1.7-3.2c-0.5,1.1-1.2,2.1-1.6,3.4c-0.4,0.1-0.4-0.2-0.6-0.2c-0.3,0.2-0.3,0.7-0.4,1
		c-0.6,0-1.2,0.1-1.5-0.2c0.1-0.9,1.4-1.4,1.6-2.3c0.4-1.3-0.3-2.1-1-2.8c0-0.3-0.1-0.3-0.1-0.6c-1.3,0.1-2.1,1.1-3.6,1
		c-0.5,0-1.1-0.4-1.6-0.4c-0.7-0.1-3.1-0.1-3.8,0.1c-1.8,0.5-0.2,4.1-0.8,5.4c-0.2,0.2-0.3-0.1-0.5-0.1c0,0.3,0.1,0.3,0.1,0.6
		c-0.4,0.2-1.3,0.3-1.8,0.1c0.3-0.8,1.1-1.7,0.9-2.7c-0.1-0.4-0.3-0.5-0.5-0.9c-0.3,0.5-0.1,1.5-0.3,2.1c-0.3,0.3-0.4,0-0.6,0.1
		c-0.1,0.2,0,0.6-0.1,0.8c-0.5-0.1-0.9,0-1.4-0.1c0.2-1,1-1.7,1-2.9c0-0.7-0.3-1.3-0.4-2.1c-0.4-0.4-0.7-0.3-1.4-0.4
		c-0.8-0.1-1.6-0.6-2.4-0.6c-0.6-0.1-1.2,0.1-1.8,0c-2.1-0.2-3.5-1.8-5-2.5v-1.4h0.1c0-0.2,0.1-0.4,0.2-0.5c1.1,0.5,3.1-0.9,3.1-1.7
		c0-0.5-0.5-1.2-0.7-1.7c-0.3-0.6-0.7-1.1-0.7-1.6c0.9,0,1.6,0.2,2.1,0.6c0-0.4-0.4-0.7-0.2-1.1c0.9,0,1.4,1.3,2.4,1.4
		c0.5,0.1,1.4-0.5,2.3-0.6c1.3-0.3,2.8-0.2,4.2-0.3c2.8-0.1,5.3-0.9,7.7-1.1h3.9c3.2,0.6,5.9,1.8,6.9,4.6
		C-223.2,416.9-222.7,416.9-222.6,417.2"/>
</g>
</svg>
