<?xml version="1.0" encoding="utf-8"?>
<!-- Generator: Adobe Illustrator 19.0.0, SVG Export Plug-In . SVG Version: 6.00 Build 0)  -->
<svg version="1.1" id="Capa_1" xmlns="http://www.w3.org/2000/svg" xmlns:xlink="http://www.w3.org/1999/xlink" x="0px" y="0px"
	 viewBox="-268 390.8 58.5 60.1" enable-background="new -268 390.8 58.5 60.1" xml:space="preserve">
<linearGradient id="XMLID_2_" gradientUnits="userSpaceOnUse" x1="-265.9187" y1="420.84" x2="-211.5813" y2="420.84">
	<stop  offset="0" style="stop-color:#CB2128"/>
	<stop  offset="0.4909" style="stop-color:#A21A1F"/>
	<stop  offset="1" style="stop-color:#841014"/>
</linearGradient>
<circle id="XMLID_93_" fill="url(#XMLID_2_)" cx="-238.8" cy="420.8" r="27.2"/>
<path fill="#FFFFFF" d="M-218.5,425.9c-0.1,0.2-0.1,0.3-0.2,0.5c-0.1,0.8-0.7,0.2-0.7,0.2c-0.3-0.2-0.7-0.3-0.7-0.3
	c0,0,0.3,2.2,0.3,6c0,0,0.3,0.2,0,0.5c-0.1,0.1-0.2,0.2-0.2,0.5c0,0,0.3,0.7-1.2,0.7c0,0-1.7,0.2-1-0.5c0,0,0.5-0.9,0.9-0.9
	c0,0-0.3-2.9-0.6-3.7c0,0-0.7-1.1-1-2.1c0,0-0.8,2.5-1.5,3.2c0,0-1.1,2.3-0.3,2.6c0,0,0.1,0.3-0.3,0.3c0,0-0.3,0.9-0.6,1.2
	c0,0-1.9,0.1-2,0c0,0-0.9,0.3,0.6-1.7c0,0,0-0.6,0.8-2.2c0,0,0.8-2.2,0.4-3.9c0,0-1.2-0.2-1.1-1.9c0,0,0-1.2-0.6-1.1
	c-0.1,0-0.8,0.1-3.8,2c0,0-0.8,0.8-1.8,1c0,0-0.4,0.2-0.6,0.4l-1.6-0.9c-0.4-0.1-2.1-0.5-4.8-0.4c0,0-0.7,0-0.7,0.5
	c0,0-0.1,2.4-0.7,3.6c0,0-0.7,2.5,0,3.2c0,0,0,0.2-0.2,0.2c0,0-0.2,0.1-0.2,0.6c0,0-0.1,0.7-0.7,0.7l-1.7,0c0,0-0.5-0.1,0.3-1.3
	c0,0,0.4-0.3,0.4-2c0,0,0-0.7-0.1-1.3c0,0,0.1-0.4-0.1,0c0,0,0,0.5-0.2,0.6v2.3c0,0,0.2,0,0,0.2c0,0-0.8,0.9-0.6,1.4
	c0,0-1,0.3-2.3,0c0,0-0.1-0.3,0.2-0.6c0,0,0.6-0.6,0.7-1c0,0,0.2-2.2,0-2.4c0,0-0.6-1.8-0.5-2.7c0-0.6,0-0.3,0-0.1
	c0-0.3,0-0.9-0.7-1.2c-0.5-0.2-1-0.8-1.3-1.3c-0.5-0.6-0.8-1.4-1-2.2c0,0-0.7-1.7-1-2.8c0,0-0.5-1.5-1.9-3.1
	c-0.1-0.2-0.3-0.3-0.4-0.5c0,0-0.1-0.4-1.2-0.4c0,0-1.5,0.1-2.8-1.1h-1.1c0,0-0.7-0.4-0.4-0.7c0,0-1.1-0.4-0.7-1c0,0,0-0.4,0.5-0.5
	c0,0,0.9-1.1,1.6-1.5c0,0,0.4-0.2,0.9-1.2c0,0,0.9-0.9,1.6-1.4h0.4c0,0,0-0.4,0.4-0.4c0,0,0.3-0.5,0.9,0c0,0,1.3,1.6,2.8,0.9
	c0,0,2.9-0.5,4.4,1.1c0,0,2.6,0.4,6.2,1.7c0.6,0.2,3.2,0.5,5.3,0.3c1.7-0.2,2.5-0.8,6.2-1.4c0,0,6.5-1.6,7.3,2.4c0,0,1.9,8,1.9,9.3
	c0.1,0.5,0.1,0.9,0.2,1.4C-218.4,424.3-218.3,425.1-218.5,425.9z"/>
<path id="XMLID_90_" fill="#FFFFFF" d="M-220.4,423.1c0,0-0.9-1.7-0.2-3.9C-220.7,419.2-220.2,420-220.4,423.1L-220.4,423.1z"/>
</svg>
