<?xml version="1.0" encoding="utf-8"?>
<!-- Generator: Adobe Illustrator 19.0.0, SVG Export Plug-In . SVG Version: 6.00 Build 0)  -->
<svg version="1.1" id="Capa_1" xmlns="http://www.w3.org/2000/svg" xmlns:xlink="http://www.w3.org/1999/xlink" x="0px" y="0px"
	 viewBox="-239 390.6 116.6 61.3" style="enable-background:new -239 390.6 116.6 61.3;" xml:space="preserve">
<style type="text/css">
	.st0{fill:url(#SVGID_1_);}
	.st1{fill:url(#SVGID_2_);}
	.st2{fill:url(#SVGID_3_);}
	.st3{fill:url(#SVGID_4_);}
	.st4{fill:url(#SVGID_5_);}
	.st5{fill:#394049;}
	.st6{enable-background:new    ;}
	.st7{fill:url(#SVGID_6_);}
</style>
<g>
	<g>
		<path d="M-235.9,444.7h0.7l1.1,4h0l1.1-4h0.7v4.5h-0.4V445h0l-1.2,4.2h-0.4l-1.2-4.2h0v4.2h-0.4V444.7z"/>
		<path d="M-226.5,448.1c-0.1,0.7-0.5,1.2-1.1,1.2c-0.7,0-1.1-0.5-1.1-1.8c0-1.2,0.4-1.8,1.2-1.8c0.8,0,1.1,0.5,1.1,1.6v0.1h-1.8
			v0.2c0,1,0.3,1.3,0.7,1.3c0.4,0,0.6-0.3,0.7-0.9H-226.5z M-226.8,447.2c0-0.8-0.2-1.1-0.7-1.1c-0.5,0-0.7,0.3-0.7,1.1H-226.8z"/>
		<path d="M-222.9,446.8c0-0.7,0.3-1.1,1-1.1c0.7,0,1,0.4,1,0.9v2c0,0.2,0.1,0.3,0.2,0.3h0.1v0.3c-0.1,0-0.1,0-0.2,0
			c-0.3,0-0.5-0.1-0.5-0.4v-0.1h0c-0.2,0.4-0.5,0.6-0.9,0.6c-0.6,0-0.9-0.4-0.9-1c0-0.4,0.2-0.8,0.7-0.9l0.7-0.2
			c0.3-0.1,0.3-0.1,0.3-0.5c0-0.4-0.2-0.6-0.6-0.6c-0.5,0-0.6,0.3-0.6,0.8H-222.9z M-221.3,447.3L-221.3,447.3
			c-0.1,0.1-0.3,0.2-0.4,0.2l-0.3,0.1c-0.4,0.1-0.6,0.3-0.6,0.7c0,0.4,0.2,0.7,0.5,0.7c0.5,0,0.8-0.4,0.8-1V447.3z"/>
		<path d="M-216.9,446.1h-0.5v-0.3h0.5v-0.9h0.4v0.9h0.6v0.3h-0.6v2.4c0,0.3,0.1,0.4,0.4,0.4c0.1,0,0.2,0,0.2,0v0.3c0,0-0.1,0-0.3,0
			c-0.5,0-0.7-0.1-0.7-0.6V446.1z"/>
		<path d="M-205.7,448.7c-0.3,0.4-0.6,0.6-1.2,0.6c-0.8,0-1.3-0.5-1.3-1.2c0-0.5,0.2-0.9,0.7-1.2l0.4-0.3c-0.3-0.4-0.5-0.8-0.5-1.1
			c0-0.5,0.4-0.8,0.9-0.8c0.5,0,0.9,0.3,0.9,0.8c0,0.4-0.2,0.7-0.8,1.2l1,1.4c0.1-0.3,0.2-0.6,0.2-0.9h0.4c0,0.4-0.1,0.8-0.3,1.2
			l0.6,0.8h-0.4L-205.7,448.7z M-207,446.9c-0.6,0.4-0.8,0.8-0.8,1.2c0,0.5,0.4,0.9,0.9,0.9c0.4,0,0.8-0.2,1-0.6L-207,446.9z
			 M-206.9,446.4c0.5-0.4,0.6-0.7,0.6-0.9c0-0.3-0.2-0.5-0.5-0.5c-0.3,0-0.5,0.2-0.5,0.5C-207.3,445.7-207.2,446.1-206.9,446.4z"/>
		<path d="M-194.3,447.7c-0.1,1-0.5,1.6-1.3,1.6c-0.9,0-1.5-0.7-1.5-2.4c0-1.6,0.5-2.4,1.5-2.4c0.9,0,1.3,0.7,1.3,1.4h-0.4
			c0-0.6-0.3-1.1-0.9-1.1c-0.6,0-1,0.5-1,2c0,1.5,0.4,2,1,2c0.6,0,0.9-0.5,0.9-1.3H-194.3z"/>
		<path d="M-190.8,446.8c0-0.7,0.3-1.1,1-1.1c0.7,0,1,0.4,1,0.9v2c0,0.2,0.1,0.3,0.2,0.3h0.1v0.3c-0.1,0-0.1,0-0.2,0
			c-0.3,0-0.5-0.1-0.5-0.4v-0.1h0c-0.2,0.4-0.5,0.6-0.9,0.6c-0.6,0-0.9-0.4-0.9-1c0-0.4,0.2-0.8,0.7-0.9l0.7-0.2
			c0.3-0.1,0.3-0.1,0.3-0.5c0-0.4-0.2-0.6-0.6-0.6c-0.5,0-0.6,0.3-0.6,0.8H-190.8z M-189.1,447.3L-189.1,447.3
			c-0.1,0.1-0.3,0.2-0.4,0.2l-0.3,0.1c-0.4,0.1-0.6,0.3-0.6,0.7c0,0.4,0.2,0.7,0.5,0.7c0.5,0,0.8-0.4,0.8-1V447.3z"/>
		<path d="M-184.4,447.5c-0.5-0.2-0.6-0.5-0.6-0.8c0-0.7,0.4-1,1-1c0.6,0,0.9,0.3,0.9,0.9v0.1h-0.4v-0.1c0-0.4-0.2-0.6-0.6-0.6
			c-0.4,0-0.6,0.2-0.6,0.6c0,0.2,0.1,0.4,0.5,0.6l0.6,0.2c0.5,0.2,0.6,0.5,0.6,0.9c0,0.6-0.3,1-1,1c-0.7,0-1-0.3-1-1.1v-0.1h0.4v0.1
			c0,0.5,0.2,0.8,0.6,0.8c0.4,0,0.7-0.2,0.7-0.6c0-0.3-0.1-0.5-0.5-0.6L-184.4,447.5z"/>
		<path d="M-179.4,444.7h0.4v0.6h-0.4V444.7z M-179.4,445.8h0.4v3.4h-0.4V445.8z"/>
		<path d="M-175.3,445.8h0.3v0.5h0c0.2-0.4,0.5-0.5,0.9-0.5c0.5,0,0.9,0.3,0.9,0.9v2.6h-0.4v-2.4c0-0.5-0.2-0.7-0.6-0.7
			c-0.4,0-0.7,0.3-0.7,0.9v2.3h-0.4V445.8z"/>
		<path d="M-167.7,445.8h0.3v3.1c0,0.9-0.3,1.4-1.1,1.4c-0.7,0-1-0.3-1-0.8h0.4c0,0.3,0.3,0.5,0.6,0.5c0.5,0,0.7-0.3,0.7-0.9v-0.5h0
			c-0.1,0.4-0.4,0.6-0.8,0.6c-0.5,0-1-0.3-1-1.7c0-1.2,0.3-1.8,1.1-1.8c0.4,0,0.7,0.2,0.8,0.6h0V445.8z M-168.4,448.9
			c0.5,0,0.7-0.3,0.7-1.4c0-1.1-0.3-1.4-0.7-1.4c-0.5,0-0.7,0.3-0.7,1.4C-169.2,448.6-168.9,448.9-168.4,448.9z"/>
		<path d="M-158.4,445h-1.2v-0.3h2.8v0.3h-1.2v4.2h-0.4V445z"/>
		<path d="M-153.9,445.8h0.4v0.5h0c0.1-0.4,0.5-0.6,0.9-0.6c0,0,0.1,0,0.1,0v0.4c-0.1,0-0.1,0-0.2,0c-0.4,0-0.8,0.3-0.8,1v2.1h-0.4
			V445.8z"/>
		<path d="M-149.2,446.8c0-0.7,0.3-1.1,1-1.1c0.7,0,1,0.4,1,0.9v2c0,0.2,0.1,0.3,0.2,0.3h0.1v0.3c-0.1,0-0.1,0-0.2,0
			c-0.3,0-0.5-0.1-0.5-0.4v-0.1h0c-0.2,0.4-0.5,0.6-0.9,0.6c-0.6,0-0.9-0.4-0.9-1c0-0.4,0.2-0.8,0.7-0.9l0.7-0.2
			c0.3-0.1,0.3-0.1,0.3-0.5c0-0.4-0.2-0.6-0.6-0.6c-0.5,0-0.6,0.3-0.6,0.8H-149.2z M-147.6,447.3L-147.6,447.3
			c-0.1,0.1-0.3,0.2-0.4,0.2l-0.3,0.1c-0.4,0.1-0.6,0.3-0.6,0.7c0,0.4,0.2,0.7,0.5,0.7c0.5,0,0.8-0.4,0.8-1V447.3z"/>
		<path d="M-141.6,448.6L-141.6,448.6c-0.1,0.4-0.4,0.6-0.8,0.6c-0.7,0-1.1-0.6-1.1-1.8c0-1.2,0.3-1.8,1.1-1.8
			c0.4,0,0.7,0.2,0.8,0.6h0v-1.7h0.4v4.5h-0.3V448.6z M-142.4,449c0.4,0,0.7-0.2,0.7-1.5c0-1.2-0.4-1.4-0.7-1.4
			c-0.4,0-0.7,0.2-0.7,1.4C-143.1,448.8-142.8,449-142.4,449z"/>
		<path d="M-137.5,444.7h0.4v0.6h-0.4V444.7z M-137.5,445.8h0.4v3.4h-0.4V445.8z"/>
		<path d="M-133.3,445.8h0.3v0.5h0c0.2-0.4,0.5-0.5,0.9-0.5c0.5,0,0.9,0.3,0.9,0.9v2.6h-0.4v-2.4c0-0.5-0.2-0.7-0.6-0.7
			c-0.4,0-0.7,0.3-0.7,0.9v2.3h-0.4V445.8z"/>
		<path d="M-125.8,445.8h0.3v3.1c0,0.9-0.3,1.4-1.1,1.4c-0.7,0-1-0.3-1-0.8h0.4c0,0.3,0.3,0.5,0.6,0.5c0.5,0,0.7-0.3,0.7-0.9v-0.5h0
			c-0.1,0.4-0.4,0.6-0.8,0.6c-0.5,0-1-0.3-1-1.7c0-1.2,0.3-1.8,1.1-1.8c0.4,0,0.7,0.2,0.8,0.6h0V445.8z M-126.5,448.9
			c0.5,0,0.7-0.3,0.7-1.4c0-1.1-0.3-1.4-0.7-1.4c-0.5,0-0.7,0.3-0.7,1.4C-127.2,448.6-127,448.9-126.5,448.9z"/>
	</g>
	<g>
		<linearGradient id="SVGID_1_" gradientUnits="userSpaceOnUse" x1="-198.1924" y1="439.1395" x2="-198.1924" y2="423.9876">
			<stop  offset="0" style="stop-color:#CC2128"/>
			<stop  offset="0.4909" style="stop-color:#A31A1F"/>
			<stop  offset="1" style="stop-color:#841014"/>
		</linearGradient>
		<path class="st0" d="M-205.7,424.2v2.1c1.9-2.2,4-2.3,4.7-2.3c1.8,0,3.6,1.1,4.4,2.8c1.1-1.7,2.9-2.8,4.9-2.8
			c2.2,0,3.8,1.2,4.6,2.5c0.7,1.2,0.7,3.3,0.7,3.9v8.8h-4.4v-6.1c0-1.9,0-3.6-0.2-4.3c-0.3-1.2-1.3-1.6-2.1-1.6
			c-1.3,0-2.5,1.1-2.9,1.6v10.5h-4.4v-7.7c0-1.7-0.1-2.3-0.2-2.9c-0.2-0.8-0.9-1.5-1.9-1.5c-1.1,0-2.3,0.8-3.1,1.7v10.4h-4.4v-15
			H-205.7z"/>
		<linearGradient id="SVGID_2_" gradientUnits="userSpaceOnUse" x1="-176.3245" y1="439.3341" x2="-176.3245" y2="423.9876">
			<stop  offset="0" style="stop-color:#CC2128"/>
			<stop  offset="0.4909" style="stop-color:#A31A1F"/>
			<stop  offset="1" style="stop-color:#841014"/>
		</linearGradient>
		<path class="st1" d="M-169.4,437.2c-1.1,0.9-2.8,2.1-6.1,2.1c-6.1,0-8.1-4.3-8.1-7.7c0-3.5,2.1-7.6,7.3-7.6c5.3,0,7.2,4,7.2,8.3
			h-9.8c0.1,1,0.5,4.2,4.3,4.2c1.9,0,3.6-0.9,5.2-2.2V437.2z M-172.8,430c-0.3-2.2-1.5-3.3-3.2-3.3c-1.6,0-2.7,1.3-2.9,3.3H-172.8z"
			/>
		<linearGradient id="SVGID_3_" gradientUnits="userSpaceOnUse" x1="-159.9924" y1="439.3341" x2="-159.9924" y2="423.9876">
			<stop  offset="0" style="stop-color:#CC2128"/>
			<stop  offset="0.4909" style="stop-color:#A31A1F"/>
			<stop  offset="1" style="stop-color:#841014"/>
		</linearGradient>
		<path class="st2" d="M-154.8,434.5c0,0.7,0,1.3,0.6,1.3c0.3,0,0.6-0.2,1.6-0.7v2.6c-1.6,0.9-2.9,1.6-4.2,1.6
			c-0.8,0-1.8-0.5-2.2-1.4c-0.6,0.4-2.4,1.4-4.3,1.4c-1.7,0-4.2-0.9-4.2-3.6c0-2.3,1.5-3.8,4.3-4.7l4-1.3c0-1.3,0-2.9-2.5-2.9
			c-2.7,0-4.3,1.8-5.1,2.7V426c1.7-1.5,3.7-2,6-2c1.3,0,3.6,0.2,5.1,1.9c1,1.1,1,2.3,1,3.3V434.5z M-159.1,432
			c-1.6,0.4-3.8,1.1-3.8,2.8c0,1,0.6,1.6,1.4,1.6c1.3,0,1.9-0.7,2.3-1.2V432z"/>
		<linearGradient id="SVGID_4_" gradientUnits="userSpaceOnUse" x1="-146.185" y1="439.3341" x2="-146.185" y2="419.5194">
			<stop  offset="0" style="stop-color:#CC2128"/>
			<stop  offset="0.4909" style="stop-color:#A31A1F"/>
			<stop  offset="1" style="stop-color:#841014"/>
		</linearGradient>
		<path class="st3" d="M-145.5,424.2h4.8v2.9h-4.8v5.5c0,1.6,0,3.5,2.3,3.5c0.9,0,1.7-0.3,2.7-0.9v3.3c-1.2,0.4-2.4,0.8-4,0.8
			c-1.5,0-3.7-0.3-4.8-2.5c-0.6-1.1-0.6-2.8-0.6-3.8v-6h-1.9v-0.5l6-7.2h0.4V424.2z"/>
		<linearGradient id="SVGID_5_" gradientUnits="userSpaceOnUse" x1="-133.543" y1="439.3341" x2="-133.543" y2="423.9876">
			<stop  offset="0" style="stop-color:#CC2128"/>
			<stop  offset="0.4909" style="stop-color:#A31A1F"/>
			<stop  offset="1" style="stop-color:#841014"/>
		</linearGradient>
		<path class="st4" d="M-128.9,428.3c-1.2-0.9-2.6-1.5-4-1.5c-1.4,0-1.8,0.6-1.8,1c0,0.8,1.1,1.3,2.9,2.2c1.3,0.6,3.6,1.7,3.6,4.6
			c0,1.7-1,4.6-5.5,4.6c-2.5,0-4-0.7-4.9-1.2v-3.3c1.6,1.2,3.3,1.6,4.2,1.6c1.4,0,2-0.6,2-1.1c0-0.9-0.8-1.3-3.3-2.5
			c-1-0.5-3.1-1.6-3.1-4.3c0-1.8,1.2-4.4,5.6-4.4c2.5,0,3.8,0.7,4.3,1V428.3z"/>
	</g>
	<g>
		<path class="st5" d="M-215.2,413l2.5-18h5.9l-3.8,27.5h-5.6l-11.3-18.7h-0.1l-2.6,18.7h-5.9l3.9-27.5h5.9L-215.2,413L-215.2,413z"
			/>
		<path class="st5" d="M-198.2,422.9c-5.2,0-9.2-3.9-9.2-8.8c0-5.6,4.8-10.2,10.6-10.2c5.2,0,9.1,3.4,9.1,8.6
			C-187.8,418.4-192.4,422.9-198.2,422.9z M-197.2,408.3c-3.6,0-4.7,4.2-4.7,6.1c0,2.8,2,4.1,3.6,4.1c3.1,0,4.7-3.6,4.7-6.1
			C-193.5,409.9-194.9,408.3-197.2,408.3z"/>
		<path class="st5" d="M-180,414.4l4.9-10.2h5.8l-9.9,18.7h-3.7l-4.7-18.7h5.3L-180,414.4L-180,414.4z"/>
		<path class="st5" d="M-159.8,420.8c-1.8,1.4-3.4,2-5.3,2c-3.7,0-6.4-3.2-6.4-7.8c0-5.3,3.4-11.1,13.3-11.1c2.3,0,3.9,0.1,6.2,0.6
			l-2.5,18h-5.5L-159.8,420.8z M-158.1,408.5c-0.4,0-0.8-0.1-1.2-0.1c-5.7,0-6.6,4.8-6.6,6.9c0,2.2,1,3.5,2.7,3.5
			c1.3,0,2.7-0.6,3.9-1.6L-158.1,408.5z"/>
	</g>
	<g>
		<g>
			<g class="st6">
				<g class="st6">
					<g>
						
							<linearGradient id="SVGID_6_" gradientUnits="userSpaceOnUse" x1="1415.722" y1="1595.6764" x2="1433.2755" y2="1595.6764" gradientTransform="matrix(-1 0 0 -1 1283.0979 2000.5677)">
							<stop  offset="0" style="stop-color:#CC2128"/>
							<stop  offset="0.4909" style="stop-color:#A31A1F"/>
							<stop  offset="1" style="stop-color:#841014"/>
						</linearGradient>
						<path class="st7" d="M-135.7,408.2c-1.4,2-1.6,2.2-2.3,3.2c-14.5-11-8.6-17.2-5.4-19.3c-0.6,0.3-1.3,0.6-2,1.2l-0.6,0.5
							c-1,1-1.1,1.1-1.8,1.8c-0.2,0.3-0.5,0.7-0.7,0.9c-4.8,7.6,1.5,14.4,7.7,18.7c-0.4,0.7-0.8,1.3-1.1,2c2.3,0.3,5,0.6,9.2,0.4
							C-132.9,416.6-132.9,416.6-135.7,408.2L-135.7,408.2z"/>
					</g>
				</g>
			</g>
		</g>
	</g>
	<g>
		<g>
			<g class="st6">
				<g class="st6">
					<g>
						<path class="st5" d="M-139.8,401.6c1.4-2,1.6-2.2,2.3-3.2c14.5,11,8.6,17.2,5.4,19.3c0.6-0.3,1.3-0.6,2-1.2l0.6-0.5
							c1-1,1.1-1.1,1.8-1.8c0.2-0.3,0.5-0.7,0.7-0.9c4.8-7.6-1.5-14.4-7.7-18.7c0.4-0.7,0.8-1.3,1.1-2c-2.3-0.3-5-0.6-9.2-0.4
							C-142.6,393.2-142.6,393.2-139.8,401.6L-139.8,401.6z"/>
					</g>
				</g>
			</g>
		</g>
	</g>
</g>
</svg>
