<?xml version="1.0" encoding="utf-8"?>
<!-- Generator: Adobe Illustrator 19.0.0, SVG Export Plug-In . SVG Version: 6.00 Build 0)  -->
<svg version="1.1" id="Capa_1" xmlns="http://www.w3.org/2000/svg" xmlns:xlink="http://www.w3.org/1999/xlink" x="0px" y="0px"
	 viewBox="-410 245.6 138 71.4" enable-background="new -410 245.6 138 71.4" xml:space="preserve">
<g id="XMLID_4_">
	<g id="XMLID_62_">
		<path id="XMLID_133_" fill="#FFFFFF" d="M-312.4,291.4h-8.8v-20.8l-10.3,12.1h-0.9l-10.3-12.1v20.8h-8.4v-36h6.7l12.6,13.5
			l12.7-13.5h6.7V291.4z"/>
		<path id="XMLID_64_" fill="#FFFFFF" d="M-277.8,266.7c0,1.3-0.2,2.6-0.7,3.9c-0.5,1.3-1.2,2.5-2.2,3.6c-1,1.1-2.4,2-4.1,2.7
			c-1.7,0.7-3.8,1-6.1,1h-5.5v13.5h-9.3v-36h14.8c2.4,0,4.4,0.3,6.1,1c1.7,0.7,3.1,1.6,4.1,2.7c1,1.1,1.8,2.3,2.2,3.6
			C-278.1,264.1-277.8,265.4-277.8,266.7z M-288.9,266.8c0-1.7-0.5-2.9-1.5-3.5c-1-0.6-1.3-0.9-3.9-0.9h-2.3v8.7h2.3
			c1.8,0,1.6-0.1,2.6-0.3c1-0.2,1.7-0.6,2.1-1.2S-288.9,267.9-288.9,266.8z"/>
	</g>
	<g id="XMLID_10_">
		<path id="XMLID_56_" fill="#FFFFFF" d="M-399.3,303.3h0.8v5.8h-0.8v-4.5l-1.8,2.3h-0.2l-1.8-2.3v4.5h-0.8v-5.8h0.8l1.9,2.4
			L-399.3,303.3z"/>
		<path id="XMLID_53_" fill="#FFFFFF" d="M-391.5,307.3h-2.7c0,0.4,0.1,0.7,0.4,0.9c0.2,0.2,0.5,0.3,0.9,0.3c0.5,0,1-0.2,1.4-0.5
			v0.7c-0.2,0.2-0.5,0.3-0.7,0.3c-0.2,0.1-0.5,0.1-0.8,0.1c-0.4,0-0.8-0.1-1-0.3c-0.3-0.2-0.5-0.4-0.6-0.7c-0.2-0.3-0.2-0.6-0.2-1
			c0-0.6,0.2-1.1,0.5-1.4c0.3-0.4,0.8-0.5,1.3-0.5c0.5,0,0.9,0.2,1.2,0.5C-391.7,306.1-391.5,306.6-391.5,307.3L-391.5,307.3z
			 M-394.2,306.9h1.9c0-0.3-0.1-0.5-0.3-0.7c-0.2-0.2-0.4-0.2-0.7-0.2s-0.5,0.1-0.7,0.2C-394.1,306.3-394.2,306.6-394.2,306.9z"/>
		<path id="XMLID_50_" fill="#FFFFFF" d="M-385.7,306.9v1.6c0,0.1,0,0.2,0.1,0.2c0.1,0,0.2-0.1,0.4-0.2v0.5
			c-0.2,0.1-0.3,0.2-0.4,0.2c-0.1,0-0.2,0.1-0.3,0.1c-0.3,0-0.5-0.1-0.6-0.4c-0.3,0.3-0.7,0.4-1,0.4c-0.3,0-0.5-0.1-0.7-0.3
			c-0.2-0.2-0.3-0.4-0.3-0.7c0-0.2,0.1-0.5,0.3-0.6c0.2-0.2,0.4-0.3,0.7-0.5l1-0.3v-0.2c0-0.5-0.2-0.7-0.7-0.7
			c-0.4,0-0.8,0.2-1.2,0.6v-0.8c0.3-0.3,0.7-0.5,1.3-0.5c0.4,0,0.7,0.1,1,0.3c0.1,0.1,0.2,0.2,0.2,0.3c0.1,0.1,0.1,0.2,0.1,0.3
			C-385.7,306.3-385.7,306.5-385.7,306.9z M-386.5,308.4v-1.1l-0.5,0.2c-0.3,0.1-0.4,0.2-0.5,0.3c-0.1,0.1-0.2,0.2-0.2,0.4
			c0,0.2,0.1,0.3,0.2,0.4c0.1,0.1,0.2,0.2,0.4,0.2C-386.9,308.7-386.7,308.6-386.5,308.4z"/>
		<path id="XMLID_48_" fill="#FFFFFF" d="M-382.5,305.9l1.4-1.4v0.8h1.2v0.7h-1.2v1.9c0,0.4,0.2,0.7,0.5,0.7c0.3,0,0.6-0.1,0.9-0.3
			v0.7c-0.3,0.2-0.6,0.2-1,0.2c-0.3,0-0.6-0.1-0.9-0.3c-0.1-0.1-0.1-0.1-0.2-0.2c0-0.1-0.1-0.2-0.1-0.3c0-0.1,0-0.4,0-0.7V306
			L-382.5,305.9L-382.5,305.9z"/>
		<path id="XMLID_44_" fill="#FFFFFF" d="M-367.9,309.2l-0.7-0.8c-0.1,0.1-0.2,0.1-0.3,0.3l0,0c-0.2,0.2-0.4,0.3-0.7,0.4
			s-0.6,0.2-0.8,0.2c-0.4,0-0.7-0.1-1-0.4c-0.3-0.3-0.4-0.6-0.4-1c0-0.3,0.1-0.5,0.2-0.7c0.1-0.2,0.4-0.4,0.7-0.7l0,0
			c0.2-0.1,0.3-0.2,0.5-0.3c-0.4-0.5-0.7-0.9-0.7-1.4c0-0.4,0.1-0.7,0.4-1c0.3-0.2,0.6-0.4,1.1-0.4c0.4,0,0.8,0.1,1,0.4
			c0.3,0.2,0.4,0.6,0.4,0.9c0,0.5-0.3,1-1,1.5l-0.1,0l0.8,0.9c0.2-0.3,0.4-0.6,0.6-0.9h0.8c-0.2,0.5-0.5,1-1,1.5l1.2,1.4H-367.9z
			 M-369.3,308l0.2-0.2l-0.9-1.1l-0.4,0.3c-0.4,0.3-0.7,0.6-0.7,0.9c0,0.2,0.1,0.3,0.2,0.4s0.3,0.2,0.5,0.2c0.2,0,0.3,0,0.5-0.1
			S-369.4,308.1-369.3,308z M-369.8,305.7l0.3-0.2c0.3-0.2,0.4-0.5,0.4-0.7c0-0.2-0.1-0.3-0.2-0.4c-0.1-0.1-0.3-0.2-0.5-0.2
			c-0.2,0-0.3,0.1-0.5,0.2c-0.1,0.1-0.2,0.2-0.2,0.4c0,0.2,0,0.3,0.1,0.5C-370.1,305.4-370,305.6-369.8,305.7z"/>
		<path id="XMLID_41_" fill="#FFFFFF" d="M-358.7,309.2v-5.8h1.9c0.6,0,1,0.2,1.3,0.5c0.3,0.3,0.5,0.7,0.5,1.2
			c0,0.3-0.1,0.6-0.3,0.9c-0.2,0.3-0.4,0.5-0.7,0.6c-0.3,0.1-0.7,0.2-1.3,0.2h-0.6v2.5H-358.7z M-357,304.1h-0.9v1.8h0.9
			c0.3,0,0.6-0.1,0.8-0.2c0.2-0.2,0.3-0.4,0.3-0.7C-355.9,304.4-356.2,304.1-357,304.1z"/>
		<path id="XMLID_38_" fill="#FFFFFF" d="M-349.4,306.9v1.6c0,0.1,0,0.2,0.1,0.2c0.1,0,0.2-0.1,0.4-0.2v0.5
			c-0.2,0.1-0.3,0.2-0.4,0.2c-0.1,0-0.2,0.1-0.3,0.1c-0.3,0-0.5-0.1-0.6-0.4c-0.3,0.3-0.7,0.4-1,0.4c-0.3,0-0.5-0.1-0.7-0.3
			c-0.2-0.2-0.3-0.4-0.3-0.7c0-0.2,0.1-0.5,0.3-0.6c0.2-0.2,0.4-0.3,0.7-0.5l1-0.3v-0.2c0-0.5-0.2-0.7-0.7-0.7
			c-0.4,0-0.8,0.2-1.2,0.6v-0.8c0.3-0.3,0.7-0.5,1.3-0.5c0.4,0,0.7,0.1,1,0.3c0.1,0.1,0.2,0.2,0.2,0.3c0.1,0.1,0.1,0.2,0.1,0.3
			C-349.4,306.3-349.4,306.5-349.4,306.9z M-350.1,308.4v-1.1l-0.5,0.2c-0.3,0.1-0.4,0.2-0.5,0.3c-0.1,0.1-0.2,0.2-0.2,0.4
			c0,0.2,0.1,0.3,0.2,0.4c0.1,0.1,0.2,0.2,0.4,0.2C-350.6,308.7-350.3,308.6-350.1,308.4z"/>
		<path id="XMLID_36_" fill="#FFFFFF" d="M-342.7,308.3v0.8c-0.4,0.1-0.8,0.2-1.1,0.2c-0.6,0-1.1-0.2-1.4-0.5
			c-0.4-0.4-0.5-0.8-0.5-1.4c0-0.6,0.2-1.1,0.5-1.5c0.3-0.4,0.8-0.6,1.4-0.6c0.2,0,0.4,0,0.5,0.1c0.2,0,0.4,0.1,0.6,0.2v0.8
			c-0.4-0.2-0.7-0.4-1.1-0.4c-0.3,0-0.6,0.1-0.8,0.4s-0.3,0.5-0.3,0.9c0,0.4,0.1,0.7,0.4,0.9c0.2,0.2,0.6,0.3,1,0.3
			C-343.4,308.5-343.1,308.4-342.7,308.3z"/>
		<path id="XMLID_33_" fill="#FFFFFF" d="M-339.3,303.3h0.8v5.8h-0.8V303.3z M-336.8,305.3h0.9l-1.6,1.9l2,2h-1l-1.9-2L-336.8,305.3
			z"/>
		<path id="XMLID_30_" fill="#FFFFFF" d="M-332.2,303.7c0.1,0,0.2,0,0.3,0.1c0.1,0.1,0.1,0.2,0.1,0.3c0,0.1,0,0.2-0.1,0.3
			c-0.1,0.1-0.2,0.1-0.3,0.1c-0.1,0-0.2,0-0.3-0.1c-0.1-0.1-0.1-0.2-0.1-0.3c0-0.1,0-0.2,0.1-0.3
			C-332.4,303.8-332.3,303.7-332.2,303.7z M-332.6,305.3h0.8v3.8h-0.8V305.3z"/>
		<path id="XMLID_28_" fill="#FFFFFF" d="M-327.4,305.3v0.5c0.3-0.4,0.7-0.6,1.2-0.6c0.2,0,0.5,0.1,0.7,0.2s0.4,0.3,0.5,0.5
			s0.2,0.6,0.2,1v2.2h-0.8V307c0-0.4-0.1-0.7-0.2-0.8c-0.1-0.2-0.3-0.3-0.6-0.3c-0.4,0-0.7,0.2-0.9,0.5v2.7h-0.8v-3.8H-327.4z"/>
		<path id="XMLID_24_" fill="#FFFFFF" d="M-321.5,306.7c0-0.4,0.1-0.7,0.4-1c0.3-0.2,0.7-0.4,1.2-0.4h1.6v0.6h-0.8
			c0.2,0.2,0.3,0.3,0.3,0.4c0.1,0.1,0.1,0.3,0.1,0.4c0,0.2-0.1,0.4-0.2,0.6c-0.1,0.2-0.3,0.3-0.4,0.4c-0.2,0.1-0.5,0.2-0.9,0.2
			c-0.3,0-0.4,0.1-0.4,0.3c0,0.1,0.1,0.2,0.2,0.2c0.1,0.1,0.3,0.1,0.6,0.2c0.5,0.1,0.8,0.2,0.9,0.2c0.1,0.1,0.3,0.1,0.4,0.3
			c0.2,0.2,0.3,0.4,0.3,0.7c0,0.4-0.2,0.7-0.5,0.9c-0.3,0.2-0.8,0.3-1.3,0.3c-0.5,0-1-0.1-1.3-0.3c-0.3-0.2-0.5-0.5-0.5-0.9
			c0-0.5,0.3-0.9,1-1c-0.3-0.2-0.4-0.3-0.4-0.5c0-0.1,0.1-0.2,0.2-0.3c0.1-0.1,0.3-0.2,0.4-0.2
			C-321.2,307.6-321.5,307.2-321.5,306.7z M-320.3,309.3c-0.3,0-0.5,0.1-0.6,0.2c-0.2,0.1-0.2,0.2-0.2,0.4c0,0.4,0.4,0.6,1.1,0.6
			c0.3,0,0.6,0,0.8-0.1c0.2-0.1,0.3-0.2,0.3-0.4c0-0.2-0.1-0.3-0.4-0.4S-319.9,309.3-320.3,309.3z M-320.1,306
			c-0.2,0-0.4,0.1-0.5,0.2c-0.1,0.1-0.2,0.3-0.2,0.5c0,0.2,0.1,0.4,0.2,0.5c0.1,0.1,0.3,0.2,0.5,0.2c0.2,0,0.4-0.1,0.5-0.2
			c0.1-0.1,0.2-0.3,0.2-0.5c0-0.2-0.1-0.4-0.2-0.5C-319.7,306.1-319.9,306-320.1,306z"/>
		<path id="XMLID_22_" fill="#FFFFFF" d="M-306.9,306.3h2v2.5c-0.7,0.3-1.4,0.5-2.1,0.5c-1,0-1.7-0.3-2.3-0.8
			c-0.6-0.6-0.9-1.3-0.9-2.1c0-0.9,0.3-1.6,0.9-2.2c0.6-0.6,1.3-0.9,2.3-0.9c0.3,0,0.6,0,0.9,0.1c0.3,0.1,0.7,0.2,1.1,0.4v0.9
			c-0.7-0.4-1.4-0.6-2.1-0.6c-0.6,0-1.2,0.2-1.6,0.7c-0.4,0.4-0.7,1-0.7,1.6c0,0.7,0.2,1.2,0.7,1.6c0.4,0.4,1,0.6,1.7,0.6
			c0.3,0,0.7-0.1,1.2-0.2l0.1,0V307h-1.1V306.3z"/>
		<path id="XMLID_20_" fill="#FFFFFF" d="M-300.5,305.3v0.9l0-0.1c0.4-0.6,0.7-0.9,1.1-0.9c0.3,0,0.6,0.1,0.9,0.4l-0.4,0.7
			c-0.3-0.3-0.5-0.4-0.7-0.4c-0.2,0-0.5,0.1-0.6,0.4c-0.2,0.2-0.3,0.5-0.3,0.8v2h-0.8v-3.8H-300.5z"/>
		<path id="XMLID_17_" fill="#FFFFFF" d="M-293.7,305.3c0.6,0,1.1,0.2,1.5,0.6c0.4,0.4,0.6,0.9,0.6,1.4c0,0.6-0.2,1-0.6,1.4
			c-0.4,0.4-0.9,0.5-1.5,0.5c-0.6,0-1.1-0.2-1.4-0.6c-0.4-0.4-0.6-0.8-0.6-1.4c0-0.6,0.2-1,0.6-1.4
			C-294.8,305.5-294.3,305.3-293.7,305.3z M-293.7,306c-0.4,0-0.7,0.1-0.9,0.4s-0.4,0.5-0.4,0.9c0,0.4,0.1,0.7,0.4,0.9
			c0.2,0.2,0.5,0.3,0.9,0.3c0.4,0,0.7-0.1,0.9-0.4c0.2-0.2,0.4-0.5,0.4-0.9c0-0.4-0.1-0.7-0.4-0.9C-293,306.1-293.4,306-293.7,306z"
			/>
		<path id="XMLID_15_" fill="#FFFFFF" d="M-285.8,309.2v-0.5c-0.2,0.2-0.3,0.3-0.6,0.4c-0.2,0.1-0.4,0.1-0.6,0.1
			c-0.2,0-0.5-0.1-0.7-0.2c-0.2-0.1-0.4-0.3-0.5-0.5c-0.1-0.2-0.2-0.6-0.2-1v-2.2h0.8v2.2c0,0.4,0.1,0.7,0.2,0.8
			c0.1,0.2,0.3,0.2,0.6,0.2c0.4,0,0.7-0.2,0.9-0.5v-2.7h0.8v3.8H-285.8z"/>
		<path id="XMLID_12_" fill="#FFFFFF" d="M-281.5,311.1v-5.8h1.3c0.7,0,1.2,0.2,1.6,0.5c0.4,0.3,0.6,0.8,0.6,1.4
			c0,0.6-0.2,1-0.5,1.4c-0.4,0.4-0.8,0.6-1.4,0.6c-0.2,0-0.5-0.1-0.8-0.2v2.1H-281.5z M-280.1,306h-0.5v2.4c0.2,0.1,0.5,0.2,0.7,0.2
			c0.4,0,0.6-0.1,0.9-0.4c0.2-0.2,0.3-0.6,0.3-1c0-0.3-0.1-0.5-0.2-0.7c-0.1-0.2-0.3-0.3-0.4-0.4C-279.5,306.1-279.8,306-280.1,306z
			"/>
	</g>
	<path id="XMLID_8_" fill="#FFFFFF" d="M-363.9,268.5c0,0-0.6-2.9-2-5.8c1.3,5.1-2.6,9.1-2.7,9.1c0,0-0.3,0.3-0.8,0.3
		c0.1,1.4-0.1,3.2-0.4,4.4c-1,3.5-4.6,12.6-18.9,12.6c0,0,0,0,0,0c-0.5,0-1-0.3-1.5-0.3c-0.2,0-0.3-0.2-0.4-0.2c0.7,0,1.3,0,1.9-0.1
		c-7.1-0.4-10.7-3.3-12.1-5.4c0,0,5.1,10.9,22,8.1c0,0,12.8-3.5,14.9-16.1C-363.7,273.5-363.4,271.7-363.9,268.5z"/>
	<path id="XMLID_7_" fill="#FFFFFF" d="M-400.5,266.3c-0.1-0.4-0.1-0.8-0.1-1.2c0-0.4,0.1-0.9,0.1-1.4c0.1-0.5,0.1-1,0.2-1.5
		c0.1-0.3,0.2-0.6,0.3-0.9c0.7-2.3,2.1-4.7,4.4-6.6c-2.4,1.5-4.4,3.4-5.7,5.6l0,0c-2.5,3.6-3.5,8.3-2.6,12.6c0.8,4,2.9,7.3,6.3,9.5
		c8,5.4,16.1,1.3,18.8-0.3c-1.7-0.3-5.3-1-9-2.5l0,0C-397.1,275.9-400.1,270.8-400.5,266.3z"/>
	<path id="XMLID_6_" fill="#FFFFFF" d="M-379.3,256.8c1.7,0.3,3.9,1,5.6,2.2c-0.3-1.2-0.7-2.4-1.5-3.4c-2.1-2.9-7.8-3.5-9.4-3.6
		c-0.8,0-1.8,0.1-2.7,0.2c-1.5,0.2-2.8,0.6-4,1.1c-3.5,1.5-6,4-7.5,7.5c0,0.1-0.1,0.2-0.1,0.3c-0.1,0.1-0.1,0.3-0.2,0.5
		c-0.3,0.8-0.4,1.5-0.5,2.2c-0.1,0.9-0.1,1.8,0,2.7c0.8,5.3,4.8,8.8,9.3,11.1c-1.2-1.4-2.1-3.2-2.6-4.5c-0.3-0.9-0.6-1.8-0.7-2.7
		c0,0,0,0,0,0c0-0.2-0.1-0.5-0.1-0.7c0-0.1,0-0.2,0-0.3c0-0.2,0-0.3,0-0.5c0-0.1,0-0.2,0-0.4c0-0.1,0-0.3,0-0.4c0-0.1,0-0.2,0-0.3
		c0-0.2,0-0.4,0.1-0.6c0,0,0-0.1,0-0.1c0.3-2.1,1.1-4.1,2.5-5.8C-388.4,257.8-383.8,256.1-379.3,256.8z"/>
	<path id="XMLID_5_" fill="#FFFFFF" d="M-369.1,271.1c0.2-0.2,5.1-5.2,1.1-11.1c-0.5-0.6-1-1.3-1.5-1.8c0.1,0,0.2,0,0.3,0.1
		c-0.1-0.1-0.2-0.1-0.3-0.1c-2.3-2.5-4.8-4.3-7.7-5.4c-1.5-0.6-3.1-1-4.7-1.2c2.5,0.4,5.7,1.4,7.3,3.6c1.3,1.8,1.9,3.8,1.8,6
		c0,2-0.6,4.2-1.7,6.6c0.7,0.7,1.3,1.3,1.9,1.8c1.6,1.4,2.6,1.7,3,1.7c0,0.1,0,0.2,0.1,0.4c0-0.1,0-0.3-0.1-0.4
		C-369.2,271.2-369.1,271.1-369.1,271.1z"/>
</g>
</svg>
